<svg xmlns="http://www.w3.org/2000/svg" xmlns:xlink="http://www.w3.org/1999/xlink" width="3956.25" height="762.5" viewBox="0 0 633 122">
  <defs>
    <style>
      .cls-1, .cls-2, .cls-3 {
        fill: #c0504d;
      }

      .cls-1, .cls-2, .cls-3, .cls-4 {
        fill-rule: evenodd;
      }

      .cls-1 {
        filter: url(#filter);
      }

      .cls-2 {
        filter: url(#filter-2);
      }

      .cls-3 {
        filter: url(#filter-3);
      }

      .cls-4 {
        fill: #fff;
      }
    </style>
    <filter id="filter" x="4" y="4.156" width="113" height="116.844" filterUnits="userSpaceOnUse">
      <feOffset result="offset" dy="3" in="SourceAlpha"/>
      <feGaussianBlur result="blur" stdDeviation="1"/>
      <feFlood result="flood" flood-opacity="0.9"/>
      <feComposite result="composite" operator="in" in2="blur"/>
      <feBlend result="blend" in="SourceGraphic"/>
      <feFlood result="flood-2" flood-color="#02b417"/>
      <feComposite result="composite-2" operator="in" in2="SourceGraphic"/>
      <feBlend result="blend-2" in2="blend"/>
    </filter>
    <filter id="filter-2" x="70" y="4.063" width="101" height="115.938" filterUnits="userSpaceOnUse">
      <feOffset result="offset" dy="3" in="SourceAlpha"/>
      <feGaussianBlur result="blur" stdDeviation="1"/>
      <feFlood result="flood" flood-opacity="0.9"/>
      <feComposite result="composite" operator="in" in2="blur"/>
      <feBlend result="blend" in="SourceGraphic"/>
      <feFlood result="flood-2" flood-color="#fff"/>
      <feComposite result="composite-2" operator="in" in2="SourceGraphic"/>
      <feBlend result="blend-2" in2="blend"/>
    </filter>
    <filter id="filter-3" x="134" y="4.656" width="90" height="116.344" filterUnits="userSpaceOnUse">
      <feOffset result="offset" dy="3" in="SourceAlpha"/>
      <feGaussianBlur result="blur" stdDeviation="1"/>
      <feFlood result="flood" flood-opacity="0.9"/>
      <feComposite result="composite" operator="in" in2="blur"/>
      <feBlend result="blend" in="SourceGraphic"/>
      <feFlood result="flood-2" flood-color="#d70803"/>
      <feComposite result="composite-2" operator="in" in2="SourceGraphic"/>
      <feBlend result="blend-2" in2="blend"/>
    </filter>
  </defs>
  <path id="Фигура_1" data-name="Фигура 1" class="cls-1" d="M6.015,86.183L81.3,5.046C82.4,3.868,85.228,3.849,87.655,5l23.866,11.351c2.651,1.261,4.008,3.35,3,4.667L43.975,113.293c-1.756,2.3-5.734,2.333-8.835.082L7.635,93.4C4.878,91.4,4.173,88.167,6.015,86.183Z"/>
  <path id="Фигура_1_копия" data-name="Фигура 1 копия" class="cls-2" d="M72.1,86.009L132.44,4.942c0.876-1.177,3.7-1.2,6.342-.043l25.943,11.343c2.882,1.26,4.622,3.348,3.858,4.663l-53.561,92.186c-1.332,2.294-5.3,2.331-8.815.082L75.045,93.221C71.921,91.221,70.622,87.992,72.1,86.009Z"/>
  <path id="Фигура_1_копия_2" data-name="Фигура 1 копия 2" class="cls-3" d="M136.284,87.006l45.5-81.467c0.66-1.182,3.49-1.2,6.347-.043l28.1,11.392c3.122,1.266,5.254,3.363,4.731,4.685l-36.618,92.672c-0.912,2.308-4.887,2.345-8.827.083l-34.944-20.07C137.07,92.247,135.17,89,136.284,87.006Z"/>
  <path id="ОРИГИНАЛЬНЫЕ_" data-name="ОРИГИНАЛЬНЫЕ  " class="cls-4" d="M254.1,52.654a16.051,16.051,0,0,0,7.758-1.86,14.132,14.132,0,0,0,0-24.937,17.148,17.148,0,0,0-15.536,0,13.809,13.809,0,0,0-5.423,5.126,14,14,0,0,0-1.959,7.343,14,14,0,0,0,1.959,7.343,13.805,13.805,0,0,0,5.423,5.126,16.169,16.169,0,0,0,7.778,1.86h0Zm0-5.462a8.79,8.79,0,0,1-4.433-1.128,8.091,8.091,0,0,1-3.107-3.147,9.9,9.9,0,0,1,0-9.183,8.09,8.09,0,0,1,3.107-3.147,9.274,9.274,0,0,1,8.866,0,8.093,8.093,0,0,1,3.108,3.147,9.909,9.909,0,0,1,0,9.183,8.093,8.093,0,0,1-3.108,3.147,8.79,8.79,0,0,1-4.433,1.128h0ZM284.22,24.471H272.226V52.179h6.413V44.54h5.581a15.608,15.608,0,0,0,6.393-1.207,9.33,9.33,0,0,0,4.176-3.483,9.623,9.623,0,0,0,1.464-5.324,9.166,9.166,0,0,0-5.64-8.827,15.4,15.4,0,0,0-6.393-1.227h0Zm-0.356,14.844h-5.225V29.7h5.225a6.734,6.734,0,0,1,4.393,1.247,4.389,4.389,0,0,1,1.5,3.582,4.342,4.342,0,0,1-1.5,3.543,6.733,6.733,0,0,1-4.393,1.247h0ZM298.51,52.179h6.056l13.221-18.01v18.01h6.333V24.471H318.1l-13.22,18.05V24.471H298.51V52.179Zm50.072-27.708H329.028V52.179H335.4L335.362,29.7h13.181Zm1.94,27.708h6.056L369.8,34.169v18.01h6.333V24.471h-6.017l-13.221,18.05V24.471h-6.372V52.179ZM400.04,24.471V35.4H387.453V24.471H381.04V52.179h6.413V40.819H400.04v11.36h6.413V24.471H400.04Zm32.577,27.708h6.729l-12.39-27.708h-6.333l-12.35,27.708h6.571l2.454-5.937h12.865ZM419.356,41.373l4.394-10.608,4.394,10.608h-8.788Zm25.333-16.9-0.4,11.242a33.254,33.254,0,0,1-1.148,8.491q-0.912,2.712-3.207,2.711a3.891,3.891,0,0,1-1.148-.158L438.4,52.179a14.273,14.273,0,0,0,3.166.435,6.285,6.285,0,0,0,4.928-1.959A11.84,11.84,0,0,0,449,45.034a59.1,59.1,0,0,0,.95-9.559l0.2-5.779h9.5V52.179h6.333V24.471h-21.3Zm39.663,9.1h-7.046v-9.1h-6.373V52.179h12.508q5.423,0,8.412-2.474t2.988-7.184q0-4.433-2.711-6.69t-7.778-2.256h0Zm-1.267,13.854h-5.779v-9.1h5.779q5.3,0,5.3,4.315a4.477,4.477,0,0,1-1.405,3.563,5.73,5.73,0,0,1-3.9,1.227h0Zm33.408-22.958V35.4H503.906V24.471h-6.413V52.179h6.413V40.819h12.587v11.36h6.413V24.471h-6.413Zm24.779,9.1h-7.046v-9.1h-6.373V52.179h12.508q5.423,0,8.412-2.474t2.988-7.184q0-4.433-2.711-6.69t-7.778-2.256h0Zm-1.267,13.854h-5.779v-9.1h5.779q5.3,0,5.3,4.315a4.477,4.477,0,0,1-1.4,3.563,5.73,5.73,0,0,1-3.9,1.227h0Zm15.279,4.75h6.373V24.471h-6.373V52.179Zm17.654-5.146V40.621H585.8V35.633H572.938V29.617h14.567V24.471h-20.94V52.179H588.02V47.033H572.938Z"/>
  <path id="ЗАПЧАСТИ_ДУКАТИ" data-name="ЗАПЧАСТИ ДУКАТИ" class="cls-4" d="M256.494,84.94a7.024,7.024,0,0,0,3.226-2.375,6.037,6.037,0,0,0,1.168-3.681,6.193,6.193,0,0,0-1.445-4.077,9.014,9.014,0,0,0-3.9-2.652,15.373,15.373,0,0,0-5.383-.91,18.884,18.884,0,0,0-4.671.594,17.913,17.913,0,0,0-4.433,1.781l1.266,3.246A14.454,14.454,0,0,1,246.1,75.2a14.713,14.713,0,0,1,3.939-.554,8.809,8.809,0,0,1,4.908,1.267,3.923,3.923,0,0,1,1.94,3.444,3.544,3.544,0,0,1-1.484,3.028,6.881,6.881,0,0,1-4.137,1.089h-5.9v3.206h6.175a8.632,8.632,0,0,1,4.79,1.128,3.644,3.644,0,0,1,1.7,3.226,4.34,4.34,0,0,1-2.256,3.859A10.371,10.371,0,0,1,250.2,96.3a15.038,15.038,0,0,1-4.552-.713,12.823,12.823,0,0,1-4.077-2.138l-1.385,2.929a16.376,16.376,0,0,0,4.987,2.494,18.808,18.808,0,0,0,5.5.831,15.97,15.97,0,0,0,5.641-.97,9.851,9.851,0,0,0,4.156-2.81,6.737,6.737,0,0,0,.1-8.51,7.791,7.791,0,0,0-4.077-2.474h0Zm31.231,14.448h4.157L279.294,71.68h-3.919L262.827,99.388H266.9l3.048-6.927h14.725ZM271.338,89.294l5.977-13.577,5.977,13.577H271.338ZM294.692,71.68V99.388h3.918V75.124h16.071V99.388h3.879V71.68H294.692Zm46.313,0V84.9a18.451,18.451,0,0,1-7.68,1.742A7.774,7.774,0,0,1,328,84.98a6,6,0,0,1-1.881-4.75V71.68h-3.879v8.985a8.832,8.832,0,0,0,2.791,7.006q2.79,2.455,7.857,2.454a22.613,22.613,0,0,0,8.115-1.7V99.388h3.918V71.68h-3.918Zm31.626,27.708h4.157L364.2,71.68h-3.919L347.734,99.388h4.077l3.048-6.927h14.725ZM356.244,89.294l5.977-13.577L368.2,89.294H356.244ZM391.592,99.7a15.6,15.6,0,0,0,5.957-1.108,12.319,12.319,0,0,0,4.612-3.246l-2.573-2.494a10.347,10.347,0,0,1-7.8,3.325,11.288,11.288,0,0,1-5.581-1.385,10.037,10.037,0,0,1-3.9-3.82,11.237,11.237,0,0,1,0-10.885,10.041,10.041,0,0,1,3.9-3.82,11.294,11.294,0,0,1,5.581-1.385,10.326,10.326,0,0,1,7.8,3.285l2.573-2.494a12.164,12.164,0,0,0-4.592-3.226,15.705,15.705,0,0,0-5.938-1.088,15.406,15.406,0,0,0-7.52,1.841,13.5,13.5,0,0,0-5.265,5.067,14.834,14.834,0,0,0,0,14.527,13.542,13.542,0,0,0,5.245,5.067,15.294,15.294,0,0,0,7.5,1.841h0ZM424.367,71.68h-22.84v3.444h9.46V99.388h3.88V75.124h9.5V71.68Zm2.849,27.708h3.642l16.427-21.335V99.388h3.879V71.68h-3.641L431.135,93.055V71.68h-3.919V99.388Zm63.1-5.225V71.68h-21.3L468.7,80.349a44.481,44.481,0,0,1-1.267,10.173q-1.031,3.563-3.523,3.642H462.8l-0.04,10.965H468.7v-5.74h19.554v5.74h5.937V94.163h-3.879ZM474.36,80.942l0.119-4.037h9.5V94.163h-12.39a11.009,11.009,0,0,0,1.94-4.928,58.3,58.3,0,0,0,.831-8.293h0Zm40.889-9.263-7.6,14.883L500.287,71.68h-6.848l10.925,20.346-0.238.317a5.569,5.569,0,0,1-1.741,1.8,4.053,4.053,0,0,1-2.138.574,9.733,9.733,0,0,1-2.771-.515l-1.543,4.869a11.944,11.944,0,0,0,4.512.95,9.1,9.1,0,0,0,5.2-1.623,13.127,13.127,0,0,0,4.1-4.79l11.8-21.929h-6.294Zm25.294,27.708h7.283l-9.341-14.329,9.064-13.379H540.78l-7.283,11.2h-4.592V71.68h-6.372V99.388h6.372V88.226h4.434Zm30.954,0h6.729L565.836,71.68H559.5l-12.35,27.708h6.571l2.454-5.937h12.865ZM558.236,88.582l4.394-10.608,4.394,10.608h-8.788Zm42.473-16.9H576.682V76.9h8.828V99.388h6.333V76.9h8.866V71.68Zm2.059,27.708h6.056l13.221-18.01v18.01h6.333V71.68h-6.017L609.14,89.73V71.68h-6.372V99.388Z"/>
</svg>
